<svg width="14" height="14" viewBox="0 0 14 14" fill="none" xmlns="http://www.w3.org/2000/svg">
<path fill-rule="evenodd" clip-rule="evenodd" d="M0.962425 6.02691C4.72051 4.05119 7.2265 2.74867 8.48037 2.11936C12.0604 0.322543 12.8043 0.0104163 13.2892 0.000109861C13.3959 -0.00215661 13.6343 0.0297336 13.7887 0.180964C13.9192 0.308659 13.955 0.481158 13.9722 0.602228C13.9894 0.723298 14.0108 0.999097 13.9938 1.2146C13.7998 3.6743 12.9603 9.64335 12.5332 12.3983C12.3525 13.564 11.9967 13.9548 11.6522 13.9931C10.9036 14.0762 10.3352 13.3961 9.61007 12.8225C8.47546 11.9251 7.83448 11.3664 6.73315 10.4907C5.46037 9.47858 6.28546 8.92233 7.01082 8.01324C7.20064 7.77533 10.4991 4.15509 10.5629 3.82668C10.5709 3.78561 10.5783 3.6325 10.503 3.55166C10.4276 3.47082 10.3163 3.49846 10.236 3.52045C10.1223 3.55161 8.3097 4.99723 4.7984 7.85731C4.28392 8.2836 3.81791 8.49131 3.40039 8.48042C2.9401 8.46843 2.05469 8.16639 1.39648 7.90821C0.589162 7.59155 -0.0524816 7.42412 0.0033917 6.88633C0.032492 6.60621 0.35217 6.31974 0.962425 6.02691Z" fill="#0D1823"/>
</svg>
