<svg width="14" height="14" viewBox="0 0 14 14" fill="none" xmlns="http://www.w3.org/2000/svg">
<g clip-path="url(#clip0_384_1224)">
<path fill-rule="evenodd" clip-rule="evenodd" d="M7.00016 1.75016C4.10067 1.75016 1.75016 4.10067 1.75016 7.00016C1.75016 9.89966 4.10067 12.2502 7.00016 12.2502C9.89966 12.2502 12.2502 9.89966 12.2502 7.00016C12.2502 4.10067 9.89966 1.75016 7.00016 1.75016ZM0.583496 7.00016C0.583496 3.45634 3.45634 0.583496 7.00016 0.583496C10.544 0.583496 13.4168 3.45634 13.4168 7.00016C13.4168 10.544 10.544 13.4168 7.00016 13.4168C3.45634 13.4168 0.583496 10.544 0.583496 7.00016Z" fill="#0D1823"/>
<path fill-rule="evenodd" clip-rule="evenodd" d="M7.00016 0.583496C7.15981 0.583496 7.31248 0.648926 7.42258 0.764531C9.02374 2.44575 9.91683 4.67847 9.91683 7.00016C9.91683 9.32185 9.02374 11.5546 7.42258 13.2358C7.31248 13.3514 7.15981 13.4168 7.00016 13.4168C6.84052 13.4168 6.68785 13.3514 6.57775 13.2358C4.97658 11.5546 4.0835 9.32185 4.0835 7.00016C4.0835 4.67847 4.97658 2.44575 6.57775 0.764531C6.68785 0.648926 6.84052 0.583496 7.00016 0.583496ZM7.00016 2.05039C5.87188 3.44647 5.25016 5.19235 5.25016 7.00016C5.25016 8.80797 5.87188 10.5539 7.00016 11.9499C8.12845 10.5539 8.75016 8.80797 8.75016 7.00016C8.75016 5.19235 8.12845 3.44647 7.00016 2.05039Z" fill="#0D1823"/>
<path fill-rule="evenodd" clip-rule="evenodd" d="M0.583496 6.99984C0.583496 6.67767 0.844663 6.4165 1.16683 6.4165H12.8335C13.1557 6.4165 13.4168 6.67767 13.4168 6.99984C13.4168 7.322 13.1557 7.58317 12.8335 7.58317H1.16683C0.844663 7.58317 0.583496 7.322 0.583496 6.99984Z" fill="#0D1823"/>
</g>
<defs>
<clipPath id="clip0_384_1224">
<rect width="14" height="14" fill="white"/>
</clipPath>
</defs>
</svg>
