<svg width="14" height="14" viewBox="0 0 14 14" fill="none" xmlns="http://www.w3.org/2000/svg">
<path d="M10.3582 8.04434C10.331 8.03125 9.31033 7.52866 9.12897 7.46339C9.05492 7.4368 8.9756 7.41084 8.89124 7.41084C8.75342 7.41084 8.63765 7.47953 8.54747 7.61443C8.44551 7.76598 8.13688 8.12675 8.04151 8.23453C8.02906 8.24875 8.01206 8.26575 8.00188 8.26575C7.99274 8.26575 7.83478 8.20071 7.78697 8.17993C6.6921 7.70434 5.86106 6.56066 5.7471 6.3678C5.73083 6.34007 5.73015 6.32748 5.73001 6.32748C5.73401 6.3128 5.77083 6.27589 5.78983 6.25684C5.84542 6.20184 5.90565 6.12934 5.96392 6.05921C5.99151 6.02598 6.01915 5.99271 6.04628 5.96134C6.13083 5.86298 6.16846 5.78662 6.2121 5.69816L6.23497 5.65221C6.34151 5.44053 6.25051 5.26189 6.2211 5.20421C6.19696 5.15594 5.76601 4.11584 5.72019 4.00657C5.61001 3.74289 5.46442 3.62012 5.2621 3.62012C5.24333 3.62012 5.2621 3.62012 5.18337 3.62344C5.08751 3.62748 4.56546 3.69621 4.33465 3.84171C4.08987 3.99603 3.67578 4.48794 3.67578 5.35303C3.67578 6.13162 4.16987 6.86675 4.38201 7.14634C4.38728 7.15339 4.39696 7.16771 4.41101 7.18825C5.22342 8.37471 6.23619 9.25398 7.26287 9.66412C8.25128 10.0589 8.71933 10.1046 8.98542 10.1046H8.98547C9.09729 10.1046 9.18679 10.0958 9.26574 10.088L9.31583 10.0833C9.65729 10.053 10.4076 9.66416 10.5783 9.18984C10.7128 8.81625 10.7482 8.40807 10.6588 8.25993C10.5975 8.15921 10.4919 8.10853 10.3582 8.04434Z" fill="#0D1823"/>
<path d="M7.12427 0C3.33263 0 0.247899 3.06155 0.247899 6.82468C0.247899 8.04182 0.573626 9.23323 1.19067 10.276L0.00962582 13.7598C-0.0123742 13.8248 0.00398945 13.8966 0.0520349 13.9455C0.0867168 13.9809 0.133762 14 0.181808 14C0.200217 14 0.218762 13.9972 0.236853 13.9915L3.86958 12.8371C4.86368 13.3682 5.98722 13.6486 7.12431 13.6486C10.9156 13.6486 14 10.5874 14 6.82468C14 3.06155 10.9156 0 7.12427 0ZM7.12427 12.227C6.05431 12.227 5.01799 11.918 4.12717 11.3335C4.09722 11.3138 4.06245 11.3037 4.02745 11.3037C4.00895 11.3037 3.9904 11.3065 3.97236 11.3123L2.15258 11.8907L2.74004 10.1576C2.75904 10.1015 2.74954 10.0396 2.71454 9.99182C2.03617 9.06491 1.67758 7.96977 1.67758 6.82468C1.67758 3.84545 4.12095 1.42164 7.12422 1.42164C10.1271 1.42164 12.5702 3.84545 12.5702 6.82468C12.5703 9.80355 10.1272 12.227 7.12427 12.227Z" fill="#0D1823"/>
</svg>
