<svg width="18" height="18" viewBox="0 0 18 18" fill="none" xmlns="http://www.w3.org/2000/svg">
<g clip-path="url(#clip0_332_1260)">
<path fill-rule="evenodd" clip-rule="evenodd" d="M9 2.25C5.27208 2.25 2.25 5.27208 2.25 9C2.25 12.7279 5.27208 15.75 9 15.75C12.7279 15.75 15.75 12.7279 15.75 9C15.75 5.27208 12.7279 2.25 9 2.25ZM0.75 9C0.75 4.44365 4.44365 0.75 9 0.75C13.5563 0.75 17.25 4.44365 17.25 9C17.25 13.5563 13.5563 17.25 9 17.25C4.44365 17.25 0.75 13.5563 0.75 9Z" fill="#0D1823"/>
<path fill-rule="evenodd" clip-rule="evenodd" d="M9 0.75C9.20526 0.75 9.40155 0.834124 9.5431 0.982759C11.6017 3.14433 12.75 6.01497 12.75 9C12.75 11.985 11.6017 14.8557 9.5431 17.0172C9.40155 17.1659 9.20526 17.25 9 17.25C8.79474 17.25 8.59845 17.1659 8.4569 17.0172C6.39826 14.8557 5.25 11.985 5.25 9C5.25 6.01497 6.39826 3.14433 8.4569 0.982759C8.59845 0.834124 8.79474 0.75 9 0.75ZM9 2.636C7.54935 4.43097 6.75 6.67567 6.75 9C6.75 11.3243 7.54935 13.569 9 15.364C10.4506 13.569 11.25 11.3243 11.25 9C11.25 6.67567 10.4507 4.43097 9 2.636Z" fill="#0D1823"/>
<path fill-rule="evenodd" clip-rule="evenodd" d="M0.75 9C0.75 8.58579 1.08579 8.25 1.5 8.25H16.5C16.9142 8.25 17.25 8.58579 17.25 9C17.25 9.41421 16.9142 9.75 16.5 9.75H1.5C1.08579 9.75 0.75 9.41421 0.75 9Z" fill="#0D1823"/>
</g>
<defs>
<clipPath id="clip0_332_1260">
<rect width="18" height="18" fill="white"/>
</clipPath>
</defs>
</svg>
