<svg width="18" height="18" viewBox="0 0 18 18" fill="none" xmlns="http://www.w3.org/2000/svg">
<path d="M13.3183 10.3431C13.2832 10.3262 11.971 9.68006 11.7378 9.59614C11.6426 9.56195 11.5406 9.52858 11.4322 9.52858C11.255 9.52858 11.1061 9.61688 10.9902 9.79034C10.8591 9.98518 10.4623 10.449 10.3396 10.5876C10.3236 10.6059 10.3018 10.6277 10.2887 10.6277C10.2769 10.6277 10.0739 10.5441 10.0124 10.5174C8.60469 9.90593 7.5362 8.43549 7.38969 8.18752C7.36877 8.15187 7.36789 8.13568 7.36771 8.13568C7.37286 8.1168 7.42019 8.06935 7.44462 8.04486C7.5161 7.97415 7.59353 7.88093 7.66845 7.79076C7.70393 7.74804 7.73946 7.70526 7.77435 7.66493C7.88305 7.53847 7.93144 7.44028 7.98755 7.32656L8.01694 7.26747C8.15393 6.99531 8.03693 6.76564 7.99912 6.69147C7.96808 6.62941 7.414 5.29215 7.35509 5.15166C7.21343 4.81264 7.02624 4.65479 6.76612 4.65479C6.74198 4.65479 6.76612 4.65479 6.6649 4.65905C6.54164 4.66425 5.87044 4.75262 5.57367 4.93969C5.25897 5.1381 4.72656 5.77055 4.72656 6.88281C4.72656 7.88386 5.36182 8.82903 5.63457 9.18851C5.64135 9.19756 5.6538 9.21597 5.67186 9.24239C6.71638 10.7678 8.01852 11.8983 9.33854 12.4256C10.6094 12.9333 11.2111 12.9919 11.5532 12.9919H11.5533C11.6971 12.9919 11.8121 12.9807 11.9137 12.9707L11.9781 12.9645C12.4171 12.9256 13.3818 12.4257 13.6013 11.8159C13.7741 11.3355 13.8197 10.8107 13.7047 10.6203C13.6259 10.4908 13.4902 10.4256 13.3183 10.3431Z" fill="#0D1823"/>
<path d="M9.15977 0C4.28481 0 0.318727 3.93627 0.318727 8.77459C0.318727 10.3395 0.737519 11.8713 1.53086 13.2119L0.0123761 17.6912C-0.0159097 17.7747 0.00512929 17.867 0.0669021 17.9299C0.111493 17.9755 0.17198 18 0.233753 18C0.257422 18 0.281266 17.9964 0.304526 17.989L4.97518 16.5048C6.2533 17.1877 7.69786 17.5482 9.15983 17.5482C14.0343 17.5482 18 13.6124 18 8.77459C18 3.93627 14.0343 0 9.15977 0ZM9.15977 15.7204C7.78412 15.7204 6.45171 15.3232 5.30637 14.5716C5.26785 14.5463 5.22315 14.5334 5.17815 14.5334C5.15436 14.5334 5.13052 14.537 5.10732 14.5443L2.76761 15.2881L3.5229 13.0598C3.54733 12.9876 3.53512 12.9081 3.49012 12.8466C2.61794 11.6549 2.15689 10.2469 2.15689 8.77459C2.15689 4.94416 5.29836 1.82782 9.15971 1.82782C13.0206 1.82782 16.1617 4.94416 16.1617 8.77459C16.1618 12.6046 13.0207 15.7204 9.15977 15.7204Z" fill="#0D1823"/>
</svg>
